<svg xmlns="http://www.w3.org/2000/svg" viewBox="0 0 714.89 713.91"><path d="M359.89,1257.11c-15.61,0-28.87-13.22-29-28.86s13.15-28.94,28.75-29.07c15.78-.12,29.3,13.35,29.19,29.1S375.49,1257.12,359.89,1257.11Z" transform="translate(-206.35 -869.78)"/><path d="M767.59,1255.22c-15.7-.15-28.86-13.34-28.87-28.94,0-15.78,13.63-29.27,29.3-29s28.81,13.63,28.64,29.17S783.08,1255.37,767.59,1255.22Z" transform="translate(-206.35 -869.78)"/><path d="M593.71,1430.14c0,15.6-13.22,28.87-28.85,29s-29-13.14-29.09-28.74c-.13-15.77,13.34-29.29,29.09-29.2S593.71,1414.54,593.71,1430.14Z" transform="translate(-206.35 -869.78)"/><path d="M563,1052.29c-15.58.08-28.88-13.07-29.08-28.74s13.35-29.29,29.09-29.19,28.92,13.46,28.85,29C591.74,1039,578.58,1052.21,563,1052.29Z" transform="translate(-206.35 -869.78)"/><path d="M723.34,1148.24a28.7,28.7,0,0,1,57.39-.11,28.7,28.7,0,1,1-57.39.11Z" transform="translate(-206.35 -869.78)"/><path d="M642.78,1443.26a28.68,28.68,0,1,1,28.92-28.52A28.65,28.65,0,0,1,642.78,1443.26Z" transform="translate(-206.35 -869.78)"/><path d="M515.64,1415.6a28.7,28.7,0,0,1-57.39,0,28.66,28.66,0,0,1,28.75-28.7A28.31,28.31,0,0,1,515.64,1415.6Z" transform="translate(-206.35 -869.78)"/><path d="M752.7,1275.28a28.71,28.71,0,1,1-.25,57.41c-15.73,0-29-13.27-28.74-28.86A28.73,28.73,0,0,1,752.7,1275.28Z" transform="translate(-206.35 -869.78)"/><path d="M375.51,1334.71c-15.91-.25-28.8-13.54-28.34-29.2a28.86,28.86,0,1,1,28.34,29.2Z" transform="translate(-206.35 -869.78)"/><path d="M513.71,1039.78c-.21,16-13,28.26-29.28,28-15.94-.28-28.23-13.11-28.08-29.29.15-15.72,13.31-28.31,29.34-28.08C501.49,1010.62,513.92,1023.66,513.71,1039.78Z" transform="translate(-206.35 -869.78)"/><path d="M420.28,1400a28.72,28.72,0,0,1-28.78-28.72c.06-15.66,13.22-28.57,29.06-28.51a29,29,0,0,1,28.75,29.31A28.63,28.63,0,0,1,420.28,1400Z" transform="translate(-206.35 -869.78)"/><path d="M679.9,1369.83a28.2,28.2,0,0,1,28.79-28.47,28.69,28.69,0,1,1-28.79,28.47Z" transform="translate(-206.35 -869.78)"/><path d="M613,1038.6A28.68,28.68,0,1,1,641.89,1067,28.66,28.66,0,0,1,613,1038.6Z" transform="translate(-206.35 -869.78)"/><path d="M404.28,1149.63c-.08,16.15-12.82,28.89-28.67,28.7-16.24-.2-28.8-12.73-28.73-28.67a28.82,28.82,0,0,1,28.74-28.79A28.53,28.53,0,0,1,404.28,1149.63Z" transform="translate(-206.35 -869.78)"/><path d="M420.25,1054.51a28.64,28.64,0,1,1-1.65,57.26c-15.48-.34-28.34-13.63-28.1-29C390.75,1066.69,403.89,1054.22,420.25,1054.51Z" transform="translate(-206.35 -869.78)"/><path d="M736.42,1082.18a28.66,28.66,0,1,1-28.63-28.68A28.48,28.48,0,0,1,736.42,1082.18Z" transform="translate(-206.35 -869.78)"/><path d="M833.46,1275.46c-.1,10-8.91,18.66-18.81,18.46S796,1284.84,796.31,1275s8.79-18.22,18.58-18.22C824.86,1256.77,833.56,1265.53,833.46,1275.46Z" transform="translate(-206.35 -869.78)"/><path d="M630.51,976.14c0,10-8.76,18.67-18.7,18.56s-18.65-8.91-18.45-18.81a19,19,0,0,1,18.47-18.33C621.77,957.47,630.52,966.16,630.51,976.14Z" transform="translate(-206.35 -869.78)"/><path d="M331.28,1179.14c-.07,10-8.85,18.66-18.77,18.5s-18.64-9-18.38-18.89a19,19,0,0,1,18.53-18.26C322.63,1160.46,331.34,1169.19,331.28,1179.14Z" transform="translate(-206.35 -869.78)"/><path d="M534.23,1477.25c.07,10-8.64,18.68-18.61,18.66s-18.67-8.79-18.54-18.73a19,19,0,0,1,18.37-18.42C525.36,1458.59,534.15,1467.25,534.23,1477.25Z" transform="translate(-206.35 -869.78)"/><path d="M441.87,1440.46a18.12,18.12,0,0,1-18.28,18.23,17.94,17.94,0,0,1-18.29-18.14,18.29,18.29,0,1,1,36.57-.09Z" transform="translate(-206.35 -869.78)"/><path d="M313.68,1297a18.29,18.29,0,1,1-.09-36.58A18.55,18.55,0,0,1,332.1,1279,18.25,18.25,0,0,1,313.68,1297Z" transform="translate(-206.35 -869.78)"/><path d="M832.69,1175.61a18.28,18.28,0,1,1-18.5-18.45A18.06,18.06,0,0,1,832.69,1175.61Z" transform="translate(-206.35 -869.78)"/><path d="M615.54,1495.22a18.28,18.28,0,1,1,.23-36.56,18.52,18.52,0,0,1,18.36,18.21A18.25,18.25,0,0,1,615.54,1495.22Z" transform="translate(-206.35 -869.78)"/><path d="M369.18,1086.35a18.3,18.3,0,1,1-18.06-18.43A17.95,17.95,0,0,1,369.18,1086.35Z" transform="translate(-206.35 -869.78)"/><path d="M776.7,1385.66a18.3,18.3,0,1,1,19-18A18.27,18.27,0,0,1,776.7,1385.66Z" transform="translate(-206.35 -869.78)"/><path d="M723.29,1013.33a17.93,17.93,0,0,1-17.95,18.44c-10.35.12-18.5-7.66-18.64-17.8A18.18,18.18,0,0,1,705,995.22,17.93,17.93,0,0,1,723.29,1013.33Z" transform="translate(-206.35 -869.78)"/><path d="M512.62,995a18.28,18.28,0,1,1,18-18.39A18,18,0,0,1,512.62,995Z" transform="translate(-206.35 -869.78)"/><path d="M706.66,1456.35a18.38,18.38,0,0,1-17.95-19.1,18.19,18.19,0,0,1,19.07-17.42c10,.35,18.29,9.09,17.85,18.84A18.58,18.58,0,0,1,706.66,1456.35Z" transform="translate(-206.35 -869.78)"/><path d="M794.14,1083.37a17.82,17.82,0,0,1-18,18.35c-10.37,0-18.55-7.78-18.63-17.83a18.32,18.32,0,1,1,36.64-.52Z" transform="translate(-206.35 -869.78)"/><path d="M352.37,1351.81a18.25,18.25,0,1,1-18.53,18C333.79,1359.89,342.09,1351.81,352.37,1351.81Z" transform="translate(-206.35 -869.78)"/><path d="M439.11,1015.66a18,18,0,0,1-18.75,17.64c-10.35-.22-18.12-8.54-17.83-19.1.27-10.1,8.42-17.53,19-17.31C431.7,997.09,439.34,1005.24,439.11,1015.66Z" transform="translate(-206.35 -869.78)"/><path d="M879.71,1229.93c.09,7.81-6.81,14.81-14.68,14.9s-14.82-6.8-14.91-14.68,6.81-14.82,14.68-14.91S879.62,1222.06,879.71,1229.93Z" transform="translate(-206.35 -869.78)"/><path d="M277.47,1224.21c.13,7.79-6.76,14.83-14.64,15s-14.82-6.76-14.95-14.64,6.75-14.83,14.64-15S277.34,1216.33,277.47,1224.21Z" transform="translate(-206.35 -869.78)"/><path d="M561.05,1512.57c7.87.07,14.78,7.06,14.71,14.88s-7.07,14.78-14.89,14.7-14.78-7.06-14.7-14.88S553.23,1512.49,561.05,1512.57Z" transform="translate(-206.35 -869.78)"/><path d="M581.42,925.93c.14,7.8-6.72,14.83-14.62,15s-14.83-6.74-15-14.62,6.74-14.83,14.62-15S581.28,918.05,581.42,925.93Z" transform="translate(-206.35 -869.78)"/><path d="M691.15,1505.82a14.45,14.45,0,0,1-14.55,14.67,14.7,14.7,0,0,1-14.47-14.85,14.51,14.51,0,0,1,29,.18Z" transform="translate(-206.35 -869.78)"/><path d="M460.75,1504.14a14.66,14.66,0,0,1-14.84,14.46,14.61,14.61,0,1,1,14.84-14.46Z" transform="translate(-206.35 -869.78)"/><path d="M843,1099.93a14.5,14.5,0,1,1-14.44,14.43A14.67,14.67,0,0,1,843,1099.93Z" transform="translate(-206.35 -869.78)"/><path d="M855.42,1344.87a14.52,14.52,0,1,1-14.4-14.69A14.15,14.15,0,0,1,855.42,1344.87Z" transform="translate(-206.35 -869.78)"/><path d="M696.84,950.54a14.52,14.52,0,1,1-14-15C691.14,935.69,697.08,942.07,696.84,950.54Z" transform="translate(-206.35 -869.78)"/><path d="M284.83,1325.3a14.55,14.55,0,1,1-14.56,14.52A14.14,14.14,0,0,1,284.83,1325.3Z" transform="translate(-206.35 -869.78)"/><path d="M287.46,1123.37A14.52,14.52,0,0,1,272.57,1109a14.71,14.71,0,1,1,14.89,14.39Z" transform="translate(-206.35 -869.78)"/><path d="M353.72,1026.05c-8.12.1-15.07-6.51-15.08-14.34A14.91,14.91,0,0,1,353,997.08a14.75,14.75,0,0,1,15.17,14.63A14.48,14.48,0,0,1,353.72,1026.05Z" transform="translate(-206.35 -869.78)"/><path d="M436.68,947.43A14.63,14.63,0,1,1,451,962.54,14.94,14.94,0,0,1,436.68,947.43Z" transform="translate(-206.35 -869.78)"/><path d="M764.74,1016.18a14.06,14.06,0,0,1,14.58-14.47,14.45,14.45,0,1,1-14.58,14.47Z" transform="translate(-206.35 -869.78)"/><path d="M363.47,1437.59c0,8-6.11,14.1-14.34,14.22a14.44,14.44,0,1,1-.15-28.87A14.34,14.34,0,0,1,363.47,1437.59Z" transform="translate(-206.35 -869.78)"/><path d="M760,1441.7a14.5,14.5,0,0,1,14-14.86,14.8,14.8,0,0,1,15.21,14.64,14.58,14.58,0,0,1-29.16.22Z" transform="translate(-206.35 -869.78)"/><path d="M908.24,1144.23A11.67,11.67,0,1,1,896.71,1156,11.53,11.53,0,0,1,908.24,1144.23Z" transform="translate(-206.35 -869.78)"/><path d="M769.46,933.17A11.4,11.4,0,0,1,758,944.86c-6.89.1-11.87-4.87-11.83-11.8a11.48,11.48,0,0,1,11.75-11.5A11.36,11.36,0,0,1,769.46,933.17Z" transform="translate(-206.35 -869.78)"/><path d="M258.93,1033.47a11.68,11.68,0,0,1,23.36-.24,11.51,11.51,0,0,1-11.87,11.88C263.7,1045.09,258.93,1040.26,258.93,1033.47Z" transform="translate(-206.35 -869.78)"/><path d="M761.08,1529.17c-6.59-.08-12.11-5.66-11.91-12.05.18-6.06,6-11.5,12.17-11.28A12.22,12.22,0,0,1,773,1517.73,11.78,11.78,0,0,1,761.08,1529.17Z" transform="translate(-206.35 -869.78)"/><path d="M646.87,1571a11.43,11.43,0,0,1-11.48,11.76,11.7,11.7,0,0,1-11.91-11.92,11.7,11.7,0,0,1,23.39.16Z" transform="translate(-206.35 -869.78)"/><path d="M207.94,1298.36c0-6.77,4.81-11.63,11.5-11.63a11.66,11.66,0,1,1-11.5,11.63Z" transform="translate(-206.35 -869.78)"/><path d="M378.58,935.67c0,6.62-4.95,11.42-11.71,11.43a11.27,11.27,0,0,1-11.69-11.47,11.4,11.4,0,0,1,11.45-11.78A11.64,11.64,0,0,1,378.58,935.67Z" transform="translate(-206.35 -869.78)"/><path d="M504.41,882.85a11.66,11.66,0,0,1-11.7,11.66,11.82,11.82,0,1,1,.31-23.64A11.76,11.76,0,0,1,504.41,882.85Z" transform="translate(-206.35 -869.78)"/><path d="M855.69,1041.18a11.92,11.92,0,0,1-12.2-11.71c-.1-6.27,5.21-11.49,11.76-11.57a12.15,12.15,0,0,1,12,11.46C867.54,1035.47,862,1041.08,855.69,1041.18Z" transform="translate(-206.35 -869.78)"/><path d="M909.05,1305.23c-6.17-.17-11.72-5.82-11.73-12,0-6.3,5.95-12.13,12.19-12s11.73,5.82,11.73,12C921.25,1299.57,915.29,1305.41,909.05,1305.23Z" transform="translate(-206.35 -869.78)"/><path d="M382.46,1520.63a11.67,11.67,0,0,1-23.34.34,11.81,11.81,0,0,1,11.29-12.1A11.67,11.67,0,0,1,382.46,1520.63Z" transform="translate(-206.35 -869.78)"/><path d="M218.07,1149.17c6.25-.17,12.2,5.66,12.2,12,0,6.13-5.54,11.78-11.73,12s-12.19-5.66-12.19-12C206.35,1155,211.89,1149.35,218.07,1149.17Z" transform="translate(-206.35 -869.78)"/><path d="M641.83,881.73c0,6.3-5.93,12.14-12.18,12s-11.73-5.81-11.74-12c0-6.3,5.94-12.14,12.19-12S641.82,875.6,641.83,881.73Z" transform="translate(-206.35 -869.78)"/><path d="M509.68,1571.75c0,6.14-5.58,11.77-11.76,11.93s-12.19-5.69-12.16-12,6-12.13,12.22-11.93S509.7,1565.62,509.68,1571.75Z" transform="translate(-206.35 -869.78)"/><path d="M846,1419.87a11.33,11.33,0,0,1,11.79-11.38,11.45,11.45,0,0,1,11.58,11.63,11.67,11.67,0,0,1-12.13,11.7C850.8,1431.73,845.94,1426.57,846,1419.87Z" transform="translate(-206.35 -869.78)"/><path d="M261,1424c-.12-6.42,4.88-11.42,11.61-11.62a11.64,11.64,0,1,1,.63,23.28A11.93,11.93,0,0,1,261,1424Z" transform="translate(-206.35 -869.78)"/></svg>